<?xml version="1.0" encoding="UTF-8"?>
<svg version="1.1" xmlns="http://www.w3.org/2000/svg" width="500" height="500">
<path d="M0 0 C165 0 330 0 500 0 C500 165 500 330 500 500 C335 500 170 500 0 500 C0 335 0 170 0 0 Z " fill="#000000" transform="translate(0,0)"/>
<path d="M0 0 C1.1859375 -0.02900391 2.371875 -0.05800781 3.59375 -0.08789062 C13.51377708 -0.1590608 21.59109893 1.45348215 29 8.4375 C29.74507813 9.12070313 30.49015625 9.80390625 31.2578125 10.5078125 C32.875 12.3125 32.875 12.3125 32.875 14.3125 C33.535 14.3125 34.195 14.3125 34.875 14.3125 C37.70661469 21.2559807 40.35127343 28.25143523 42.875 35.3125 C43.596875 34.549375 44.31875 33.78625 45.0625 33 C49.48944601 28.76980715 52.61970663 26.8896792 58.8125 26.9375 C64.33530895 27.09993556 68.22026729 27.7230476 72.3046875 31.70703125 C77.21300636 37.18382772 76.875 39.89469566 76.875 47.3125 C67.965 47.3125 59.055 47.3125 49.875 47.3125 C52.05559833 54.16075895 52.05559833 54.16075895 55.875 56.3125 C58.96304516 56.48032854 61.89029847 56.11932858 64.875 55.3125 C65.88142948 53.98401309 66.88192179 52.65099671 67.875 51.3125 C70.62437959 50.94260355 73.08462599 51.12952466 75.875 51.3125 C75.60772423 55.85618817 73.75240471 58.05404292 70.54296875 61.01953125 C65.96383591 64.5691635 60.45637774 65.00737032 54.875 64.3125 C49.55331443 62.50312691 45.88255116 59.00513302 42.875 54.3125 C42.875 53.3225 42.875 52.3325 42.875 51.3125 C42.215 51.3125 41.555 51.3125 40.875 51.3125 C40.6275 52.09625 40.38 52.88 40.125 53.6875 C38.72110901 56.63567108 37.86824263 57.2149777 34.875 58.3125 C34.875 59.9625 34.875 61.6125 34.875 63.3125 C33.225 63.3125 31.575 63.3125 29.875 63.3125 C29.66875 63.84875 29.4625 64.385 29.25 64.9375 C27.34249574 68.23228009 24.82680616 70.90613628 21.875 73.3125 C21.215 73.3125 20.555 73.3125 19.875 73.3125 C19.875 73.9725 19.875 74.6325 19.875 75.3125 C8.26225195 82.48507968 8.26225195 82.48507968 0.875 81.3125 C-5.74619289 79.468487 -10.50344456 76.41873069 -15.7421875 72.0625 C-19.83102399 69.05955124 -24.44458392 67.21091176 -29.125 65.3125 C-29.125 64.6525 -29.125 63.9925 -29.125 63.3125 C-29.7025 63.27125 -30.28 63.23 -30.875 63.1875 C-34.79546005 61.66287665 -36.16896159 57.95191604 -38.20703125 54.45703125 C-42.7835587 43.76548415 -36.88286643 31.68552398 -33.02001953 21.7097168 C-31.85161221 18.58025921 -30.85009041 15.40640934 -29.87133789 12.21313477 C-27.66951166 6.60593253 -22.20366837 3.8980039 -17.125 1.3125 C-11.64250434 -0.45569562 -5.69514807 0.0455369 0 0 Z " fill="#9249F1" transform="translate(167.125,209.6875)"/>
<path d="M0 0 C3.3 0 6.6 0 10 0 C12.06306376 3.64551459 14.12534659 7.29147039 16.1875 10.9375 C16.76564453 11.95908203 17.34378906 12.98066406 17.93945312 14.03320312 C19.08417946 16.0574932 20.22726889 18.08270989 21.36865234 20.10888672 C22.42056853 21.9731177 23.47779679 23.83436607 24.54150391 25.69189453 C24.99831543 26.4961084 25.45512695 27.30032227 25.92578125 28.12890625 C26.32837158 28.83217041 26.73096191 29.53543457 27.14575195 30.26000977 C28 32 28 32 28 34 C28.66 34 29.32 34 30 34 C30 22.78 30 11.56 30 0 C32.97 0 35.94 0 39 0 C41.83161469 6.9434807 44.47627343 13.93893523 47 21 C47.721875 20.236875 48.44375 19.47375 49.1875 18.6875 C53.61444601 14.45730715 56.74470663 12.5771792 62.9375 12.625 C68.46030895 12.78743556 72.34526729 13.4105476 76.4296875 17.39453125 C81.33800636 22.87132772 81 25.58219566 81 33 C72.09 33 63.18 33 54 33 C56.18059833 39.84825895 56.18059833 39.84825895 60 42 C63.08804516 42.16782854 66.01529847 41.80682858 69 41 C70.00642948 39.67151309 71.00692179 38.33849671 72 37 C74.74937959 36.63010355 77.20962599 36.81702466 80 37 C79.73272423 41.54368817 77.87740471 43.74154292 74.66796875 46.70703125 C70.08883591 50.2566635 64.58137774 50.69487032 59 50 C53.67831443 48.19062691 50.00755116 44.69263302 47 40 C47 39.01 47 38.02 47 37 C46.34 37 45.68 37 45 37 C44.7525 37.78375 44.505 38.5675 44.25 39.375 C42.84610901 42.32317108 41.99324263 42.9024777 39 44 C39 45.65 39 47.3 39 49 C35.37 49 31.74 49 28 49 C27.46632812 47.98164063 26.93265625 46.96328125 26.3828125 45.9140625 C20.74221969 35.1868294 14.91426244 24.57903282 9 14 C8.67 25.55 8.34 37.1 8 49 C5.36 49 2.72 49 0 49 C0 32.83 0 16.66 0 0 Z " fill="#F3F3F3" transform="translate(163,224)"/>
<path d="M0 0 C1.1859375 -0.02900391 2.371875 -0.05800781 3.59375 -0.08789062 C13.51377708 -0.1590608 21.59109893 1.45348215 29 8.4375 C29.74507813 9.12070313 30.49015625 9.80390625 31.2578125 10.5078125 C32.875 12.3125 32.875 12.3125 32.875 14.3125 C30.565 14.3125 28.255 14.3125 25.875 14.3125 C25.875 25.5325 25.875 36.7525 25.875 48.3125 C25.215 48.3125 24.555 48.3125 23.875 48.3125 C21.63195071 44.25626203 19.38995638 40.19944347 17.14892578 36.14208984 C16.3868439 34.76269897 15.62447701 33.38346551 14.86181641 32.00439453 C13.76389297 30.01897106 12.66700507 28.03297857 11.5703125 26.046875 C11.2306546 25.43318054 10.8909967 24.81948608 10.54104614 24.18719482 C9.22007031 21.79304298 7.92404124 19.42049695 6.79296875 16.9296875 C6.49003906 16.39601562 6.18710938 15.86234375 5.875 15.3125 C3.45820293 14.61073412 3.45820293 14.61073412 0.75 14.5625 C-0.16007812 14.50578125 -1.07015625 14.4490625 -2.0078125 14.390625 C-2.70648438 14.36484375 -3.40515625 14.3390625 -4.125 14.3125 C-4.125 15.9625 -4.125 17.6125 -4.125 19.3125 C-4.89585937 19.33828125 -5.66671875 19.3640625 -6.4609375 19.390625 C-7.46382812 19.44734375 -8.46671875 19.5040625 -9.5 19.5625 C-10.49773437 19.60890625 -11.49546875 19.6553125 -12.5234375 19.703125 C-15.20201488 20.01650233 -15.20201488 20.01650233 -16.22070312 21.97070312 C-17.3040756 24.77624004 -17.75760758 27.41423153 -18.1953125 30.390625 C-18.45634766 32.13085938 -18.45634766 32.13085938 -18.72265625 33.90625 C-18.89667969 35.1128125 -19.07070312 36.319375 -19.25 37.5625 C-19.43175781 38.78453125 -19.61351562 40.0065625 -19.80078125 41.265625 C-20.24828757 44.28040443 -20.68944866 47.29597415 -21.125 50.3125 C-21.785 50.3125 -22.445 50.3125 -23.125 50.3125 C-22.63 47.3425 -22.63 47.3425 -22.125 44.3125 C-23.445 44.3125 -24.765 44.3125 -26.125 44.3125 C-25.795 42.0025 -25.465 39.6925 -25.125 37.3125 C-28.18742216 42.15310277 -29.65911505 45.60540936 -30.125 51.3125 C-30.455 51.3125 -30.785 51.3125 -31.125 51.3125 C-31.125 49.6625 -31.125 48.0125 -31.125 46.3125 C-32.445 46.3125 -33.765 46.3125 -35.125 46.3125 C-36.875 45.25 -36.875 45.25 -38.125 43.3125 C-38.59925383 37.52660331 -37.34214006 33.23469971 -35.3125 27.9375 C-34.75425728 26.43524891 -34.19695582 24.93264768 -33.640625 23.4296875 C-33.37443359 22.71780273 -33.10824219 22.00591797 -32.83398438 21.27246094 C-31.97464948 18.89686157 -31.26498314 16.48851735 -30.5625 14.0625 C-28.33741891 7.38725672 -23.10022069 4.35443053 -17.125 1.3125 C-11.64250434 -0.45569562 -5.69514807 0.0455369 0 0 Z " fill="#CC02F8" transform="translate(167.125,209.6875)"/>
<path d="M0 0 C3.3 0 6.6 0 10 0 C12.06306376 3.64551459 14.12534659 7.29147039 16.1875 10.9375 C16.76564453 11.95908203 17.34378906 12.98066406 17.93945312 14.03320312 C19.08417946 16.0574932 20.22726889 18.08270989 21.36865234 20.10888672 C22.42056853 21.9731177 23.47779679 23.83436607 24.54150391 25.69189453 C24.99831543 26.4961084 25.45512695 27.30032227 25.92578125 28.12890625 C26.32837158 28.83217041 26.73096191 29.53543457 27.14575195 30.26000977 C28 32 28 32 28 34 C28.66 34 29.32 34 30 34 C30 22.78 30 11.56 30 0 C32.64 0 35.28 0 38 0 C38 16.17 38 32.34 38 49 C34.7 49 31.4 49 28 49 C27.46632812 47.98164063 26.93265625 46.96328125 26.3828125 45.9140625 C20.74221969 35.1868294 14.91426244 24.57903282 9 14 C8.67 25.55 8.34 37.1 8 49 C5.36 49 2.72 49 0 49 C0 32.83 0 16.66 0 0 Z " fill="#FAF7FA" transform="translate(163,224)"/>
<path d="M0 0 C0.103125 0.639375 0.20625 1.27875 0.3125 1.9375 C0.539375 2.618125 0.76625 3.29875 1 4 C1.99 4.33 2.98 4.66 4 5 C4 5.66 4 6.32 4 7 C5.32 7 6.64 7 8 7 C8.66 10.63 9.32 14.26 10 18 C10.99 18.33 11.98 18.66 13 19 C14.66666667 20.66666667 16.33333333 22.33333333 18 24 C19.63377642 25.05287814 21.29181597 26.0727001 23 27 C23 26.34 23 25.68 23 25 C24.65 25 26.3 25 28 25 C28 25.66 28 26.32 28 27 C41.07237065 29.15875121 41.07237065 29.15875121 53 25 C58.25834283 23.65484253 63.60951551 23.90412182 69 24 C67.68515589 26.90782833 66.26624689 29.00641558 64 31.25 C63.2265625 32.03117187 63.2265625 32.03117187 62.4375 32.828125 C61 34 61 34 59 34 C59 34.66 59 35.32 59 36 C47.38725195 43.17257968 47.38725195 43.17257968 40 42 C33.37880711 40.155987 28.62155544 37.10623069 23.3828125 32.75 C19.29397601 29.74705124 14.68041608 27.89841176 10 26 C10 25.34 10 24.68 10 24 C9.4225 23.95875 8.845 23.9175 8.25 23.875 C4.82927777 22.54471913 3.82103788 20.09576439 2 17 C1.63390625 16.41347656 1.2678125 15.82695312 0.890625 15.22265625 C-0.33497571 12.16402991 -0.19061374 9.53068724 -0.125 6.25 C-0.09792969 4.49429688 -0.09792969 4.49429688 -0.0703125 2.703125 C-0.04710938 1.81109375 -0.02390625 0.9190625 0 0 Z " fill="#0450F9" transform="translate(128,249)"/>
<path d="M0 0 C4.93264249 -0.96891192 4.93264249 -0.96891192 8 0 C11.16868598 3.35602384 13.59997847 7.06804984 16 11 C18.57223229 8.56258073 20.46769217 6.33379335 22.1875 3.25 C23.80809178 0.85988193 24.4445342 0.10753968 27.3203125 -0.44921875 C29.58646585 -0.43856286 31.7560373 -0.30799488 34 0 C32.92044741 1.73152958 31.83617488 3.46011684 30.75 5.1875 C30.14671875 6.15042969 29.5434375 7.11335937 28.921875 8.10546875 C27 11 27 11 24.703125 13.55078125 C22.7894006 15.8259754 22.7894006 15.8259754 22.93359375 18.359375 C24.43706956 22.08226749 26.6549098 25.05754201 29.0625 28.25 C34 34.90518417 34 34.90518417 34 36 C30.77280243 36.73956611 28.20224326 36.92268026 25 36 C21.76880491 32.6733016 19.3680477 28.97470676 17 25 C14.43530171 27.43538577 12.50223615 29.69012493 10.75 32.75 C9.21831242 35.00191684 8.59891116 35.87174156 5.90234375 36.44921875 C3.6875 36.4375 3.6875 36.4375 0 36 C1.79922319 30.74512592 4.97737661 27.00894546 8.41796875 22.71875 C10.19828321 20.17477453 10.19828321 20.17477453 10.0234375 17.57421875 C8.6517779 14.12412838 6.6294016 11.27643433 4.4375 8.3125 C0 2.24544765 0 2.24544765 0 0 Z " fill="#F2F2F2" transform="translate(247,237)"/>
<path d="M0 0 C1.03769531 -0.02578125 2.07539063 -0.0515625 3.14453125 -0.078125 C7.92044886 0.43686483 10.39928311 2.30851871 13.4375 5.9375 C15.1875 9.25 15.1875 9.25 16.1875 17.25 C6.9475 17.25 -2.2925 17.25 -11.8125 17.25 C-8.09419226 26.75386106 -8.09419226 26.75386106 -3.8125 29.25 C1.18023591 29.71229036 4.18740685 29.33578614 8.1875 26.25 C8.8475 25.26 9.5075 24.27 10.1875 23.25 C11.5075 23.25 12.8275 23.25 14.1875 23.25 C13.90099017 26.68811794 13.45316773 27.99171193 10.9375 30.4375 C5.96388924 33.71556164 2.20731821 34.88366507 -3.8125 34.25 C-8.65826991 31.58957731 -13.02606056 28.60931831 -14.8125 23.25 C-16.11743276 11.57974906 -16.11743276 11.57974906 -13.3203125 6.5859375 C-9.06437131 1.72957308 -6.49502872 0.096104 0 0 Z " fill="#F0F0F0" transform="translate(321.8125,238.75)"/>
<path d="M0 0 C0.33 1.32 0.66 2.64 1 4 C0.34 4 -0.32 4 -1 4 C-1 5.32 -1 6.64 -1 8 C0.3303125 7.62875 0.3303125 7.62875 1.6875 7.25 C5 7 5 7 7.875 8.9375 C8.57625 9.618125 9.2775 10.29875 10 11 C9.5480971 13.10888019 9.07456419 14.86495306 8.02783203 16.76074219 C6.75760234 19.52809294 6.37262402 22.06615666 5.9296875 25.078125 C5.66865234 26.81835938 5.66865234 26.81835938 5.40234375 28.59375 C5.14130859 30.40359375 5.14130859 30.40359375 4.875 32.25 C4.69324219 33.47203125 4.51148438 34.6940625 4.32421875 35.953125 C3.87671243 38.96790443 3.43555134 41.98347415 3 45 C2.34 45 1.68 45 1 45 C1.495 42.03 1.495 42.03 2 39 C0.68 39 -0.64 39 -2 39 C-1.67 36.69 -1.34 34.38 -1 32 C-4.06242216 36.84060277 -5.53411505 40.29290936 -6 46 C-6.33 46 -6.66 46 -7 46 C-7 44.35 -7 42.7 -7 41 C-8.32 41 -9.64 41 -11 41 C-12.75 39.9375 -12.75 39.9375 -14 38 C-14.47425383 32.21410331 -13.21714006 27.92219971 -11.1875 22.625 C-10.62925728 21.12274891 -10.07195582 19.62014768 -9.515625 18.1171875 C-9.24943359 17.40530273 -8.98324219 16.69341797 -8.70898438 15.95996094 C-7.84964948 13.58436157 -7.13998314 11.17601735 -6.4375 8.75 C-5.15357837 4.76674917 -3.18763492 2.67072115 0 0 Z " fill="#8D39F9" transform="translate(143,215)"/>
<path d="M0 0 C3.63 0 7.26 0 11 0 C11 13.53 11 27.06 11 41 C6.79728711 39.94932178 5.15600336 38.77055202 1.875 36.0625 C1.00617188 35.35222656 0.13734375 34.64195312 -0.7578125 33.91015625 C-4.94902827 30.3395909 -4.94902827 30.3395909 -5.30078125 27.99609375 C-5.32891344 21.85389899 -4.65822378 15.97793427 -3.625 9.9375 C-3.49907471 9.18718506 -3.37314941 8.43687012 -3.2434082 7.66381836 C-2.25057889 2.25057889 -2.25057889 2.25057889 0 0 Z " fill="#0E0612" transform="translate(152,229)"/>
<path d="M0 0 C2.64 0 5.28 0 8 0 C8 4.29 8 8.58 8 13 C10.31 13 12.62 13 15 13 C15 15.31 15 17.62 15 20 C12.69 20 10.38 20 8 20 C8 27.26 8 34.52 8 42 C10.31 42 12.62 42 15 42 C15 44.31 15 46.62 15 49 C13.25215533 49.13560864 11.50126074 49.23227209 9.75 49.3125 C8.77546875 49.37050781 7.8009375 49.42851562 6.796875 49.48828125 C4 49 4 49 1.84960938 46.84179688 C-0.29048021 43.55369725 -0.47019225 41.92187195 -0.390625 38.04296875 C-0.37773437 36.93115234 -0.36484375 35.81933594 -0.3515625 34.67382812 C-0.31804687 33.52333984 -0.28453125 32.37285156 -0.25 31.1875 C-0.23195313 30.01767578 -0.21390625 28.84785156 -0.1953125 27.64257812 C-0.1482644 24.7608822 -0.08253709 21.88086203 0 19 C-1.65 19 -3.3 19 -5 19 C-5 17.02 -5 15.04 -5 13 C-3.35 13 -1.7 13 0 13 C0 8.71 0 4.42 0 0 Z " fill="#EFEFEF" transform="translate(289,224)"/>
<path d="M0 0 C0 0.66 0 1.32 0 2 C0.886875 2.103125 1.77375 2.20625 2.6875 2.3125 C6.13519731 3.02805982 8.19534763 3.89651072 11 6 C12.3125 8.1875 12.3125 8.1875 13 10 C10.69 10 8.38 10 6 10 C6 19.24 6 28.48 6 38 C2.76645582 34.76645582 1.8006006 32.09584647 0.5 27.875 C0.28351807 27.20573486 0.06703613 26.53646973 -0.15600586 25.84692383 C-1.09515383 22.93602187 -1.99436617 20.01939387 -2.84765625 17.08203125 C-3.91229211 12.83428423 -3.91229211 12.83428423 -6.828125 9.8359375 C-13.28457126 7.35090243 -20.15830728 6.65158978 -27 6 C-27 5.34 -27 4.68 -27 4 C-24.36 4 -21.72 4 -19 4 C-19 3.34 -19 2.68 -19 2 C-20.98 2 -22.96 2 -25 2 C-24.67 1.34 -24.34 0.68 -24 0 C-16.67129983 -2.16256726 -6.66990651 -4.44660434 0 0 Z " fill="#F402FC" transform="translate(187,214)"/>
<path d="M0 0 C1.32 0 2.64 0 4 0 C4.33 5.61 4.66 11.22 5 17 C6.65 15.68 8.3 14.36 10 13 C13.41915859 12.22534688 16.56192358 12.33383741 20 13 C23.34625024 15.52676039 24.67977847 17.03933542 26 21 C26.08266486 22.91906917 26.10740663 24.84089474 26.09765625 26.76171875 C26.09443359 27.87998047 26.09121094 28.99824219 26.08789062 30.15039062 C26.07951172 31.31763672 26.07113281 32.48488281 26.0625 33.6875 C26.05798828 34.86634766 26.05347656 36.04519531 26.04882812 37.25976562 C26.03703273 40.17322789 26.0205727 43.08658863 26 46 C24.35 46 22.7 46 21 46 C20.98018066 45.22809326 20.96036133 44.45618652 20.93994141 43.66088867 C20.84478857 40.16941042 20.73506953 36.67853848 20.625 33.1875 C20.5940625 31.97255859 20.563125 30.75761719 20.53125 29.50585938 C20.49257813 28.34248047 20.45390625 27.17910156 20.4140625 25.98046875 C20.3826416 24.90692139 20.3512207 23.83337402 20.31884766 22.72729492 C20.18407693 19.7839235 20.18407693 19.7839235 18 17 C14.10378527 16.49493513 11.91542863 16.33198451 8.6875 18.6875 C4.63554843 24.24017438 4.60067227 29.65986948 4.375 36.3125 C4.33632813 37.24384766 4.29765625 38.17519531 4.2578125 39.13476562 C4.16393687 41.42298407 4.07825491 43.71120295 4 46 C2.68 46 1.36 46 0 46 C0 30.82 0 15.64 0 0 Z " fill="#E0E0E0" transform="translate(380,226)"/>
<path d="M0 0 C3.769887 1.48773318 5.74262867 3.613943 8 7 C8 7.99 8 8.98 8 10 C4.34023602 9.68630594 3.20819863 9.23070659 0.6875 6.4375 C-2.06596867 3.94016795 -2.52808659 3.59383381 -6 3.4375 C-10.01296 3.68783588 -12.17947489 5.09400444 -15 8 C-16.39865903 10.79731805 -16.24537267 13.19284559 -16.3125 16.3125 C-16.34988281 17.44300781 -16.38726562 18.57351563 -16.42578125 19.73828125 C-15.91605818 23.64304057 -14.72790817 25.22148129 -12 28 C-8.78801045 29.60599477 -5.47398605 29.62370792 -2 29 C0.70848923 26.62494782 0.70848923 26.62494782 3 24 C5.8125 23.1875 5.8125 23.1875 8 23 C7.16569015 26.67096333 6.30842311 28.69157689 3.625 31.375 C-1.65440946 33.74163183 -6.31689736 34.10835379 -12 33 C-16.43792838 30.56472169 -19.20965826 27.54775257 -21.5 23.0625 C-22.54046192 16.68967076 -22.87117381 12.06536821 -19.2421875 6.609375 C-13.76857331 -0.48222577 -8.79885635 -1.32585507 0 0 Z " fill="#F0F0F0" transform="translate(365,239)"/>
<path d="M0 0 C3.73094828 7.46189656 7.44351785 15.04649997 10 23 C9.67 23.99 9.34 24.98 9 26 C8.9314505 27.89470816 8.91519628 29.7916834 8.9375 31.6875 C8.94652344 32.68136719 8.95554688 33.67523438 8.96484375 34.69921875 C8.97644531 35.45847656 8.98804688 36.21773438 9 37 C8.34 37 7.68 37 7 37 C6.7525 37.78375 6.505 38.5675 6.25 39.375 C4.84610901 42.32317108 3.99324263 42.9024777 1 44 C1 45.65 1 47.3 1 49 C0.67 49 0.34 49 0 49 C0 32.83 0 16.66 0 0 Z " fill="#C08DF3" transform="translate(201,224)"/>
<path d="M0 0 C3.35983003 4.47977338 6.02436231 9.12034173 8.75 14 C9.26949219 14.90234375 9.78898438 15.8046875 10.32421875 16.734375 C10.81019531 17.60578125 11.29617187 18.4771875 11.796875 19.375 C12.24385742 20.16648437 12.69083984 20.95796875 13.15136719 21.7734375 C14.1481259 24.38863873 14.11199322 25.45387249 13 28 C10.3125 30.140625 10.3125 30.140625 7 32.25 C5.906875 32.95640625 4.81375 33.6628125 3.6875 34.390625 C1 36 1 36 0 36 C0 24.12 0 12.24 0 0 Z " fill="#060508" transform="translate(171,236)"/>
<path d="M0 0 C2.74937959 -0.36989645 5.20962599 -0.18297534 8 0 C7.73272423 4.54368817 5.87740471 6.74154292 2.66796875 9.70703125 C-1.43619312 12.88847757 -5.99922993 13.39889453 -11.03515625 13.25390625 C-14.18008324 12.84750415 -16.40167149 11.77446825 -19 10 C-19.875 7.8125 -19.875 7.8125 -20 6 C-19.34 6 -18.68 6 -18 6 C-18 5.34 -18 4.68 -18 4 C-16.33388095 3.957279 -14.66617115 3.95936168 -13 4 C-12.67 4.33 -12.34 4.66 -12 5 C-8.93465874 5.03053129 -5.97796734 4.72952033 -3 4 C-1.99357052 2.67151309 -0.99307821 1.33849671 0 0 Z " fill="#EFEFEE" transform="translate(235,261)"/>
<path d="M0 0 C1.32 0 2.64 0 4 0 C4 5.94 4 11.88 4 18 C4.99 18.33 5.98 18.66 7 19 C6.68289063 19.93972656 6.36578125 20.87945312 6.0390625 21.84765625 C4.66420829 26.65964599 4.54698032 31.46081948 4.375 36.4375 C4.33632813 37.35982422 4.29765625 38.28214844 4.2578125 39.23242188 C4.16431324 41.48809143 4.0785609 43.74376916 4 46 C2.68 46 1.36 46 0 46 C0 30.82 0 15.64 0 0 Z " fill="#ECECEC" transform="translate(380,226)"/>
<path d="M0 0 C2.80565984 1.59558518 5.06343229 3.41229648 7 6 C7.33 7.65 7.66 9.3 8 11 C0.41 11 -7.18 11 -15 11 C-14.01221524 6.06107618 -13.26400276 4.56073029 -10 1 C-6.7314809 -0.63425955 -3.5188781 -0.67086525 0 0 Z " fill="#090909" transform="translate(326,242)"/>
<path d="M0 0 C1.875 1.3125 1.875 1.3125 3 3 C2.71225849 5.97332891 1.39923409 8.38809637 0 11 C-0.66 11 -1.32 11 -2 11 C-2.10957031 11.62648437 -2.21914062 12.25296875 -2.33203125 12.8984375 C-2.49058594 13.71570313 -2.64914063 14.53296875 -2.8125 15.375 C-2.96332031 16.18710938 -3.11414063 16.99921875 -3.26953125 17.8359375 C-4 20 -4 20 -7 22 C-7.33 21.01 -7.66 20.02 -8 19 C-8.66 19 -9.32 19 -10 19 C-10 16.03 -10 13.06 -10 10 C-10.66 10 -11.32 10 -12 10 C-11.38976378 3.53149606 -11.38976378 3.53149606 -9.625 1.125 C-6.21826656 -1.23350777 -3.82850582 -1.14855175 0 0 Z " fill="#CA54F6" transform="translate(150,223)"/>
<path d="M0 0 C0.103125 0.639375 0.20625 1.27875 0.3125 1.9375 C0.539375 2.618125 0.76625 3.29875 1 4 C1.99 4.33 2.98 4.66 4 5 C4 5.66 4 6.32 4 7 C5.32 7 6.64 7 8 7 C8.66 10.63 9.32 14.26 10 18 C10.99 18.33 11.98 18.66 13 19 C14.5703125 20.48828125 14.5703125 20.48828125 16.125 22.3125 C16.90230469 23.20388672 16.90230469 23.20388672 17.6953125 24.11328125 C19.06507125 26.09410003 19.57412871 27.64732079 20 30 C16.51329166 28.8905928 13.22515763 27.73662334 10 26 C10 25.34 10 24.68 10 24 C9.4225 23.95875 8.845 23.9175 8.25 23.875 C4.82927777 22.54471913 3.82103788 20.09576439 2 17 C1.63390625 16.41347656 1.2678125 15.82695312 0.890625 15.22265625 C-0.33497571 12.16402991 -0.19061374 9.53068724 -0.125 6.25 C-0.09792969 4.49429688 -0.09792969 4.49429688 -0.0703125 2.703125 C-0.04710938 1.81109375 -0.02390625 0.9190625 0 0 Z " fill="#0A32C1" transform="translate(128,249)"/>
<path d="M0 0 C2.74792483 3.40219265 6 7.48464588 6 12 C5.16855469 12.19335938 4.33710938 12.38671875 3.48046875 12.5859375 C2.39378906 12.84632813 1.30710938 13.10671875 0.1875 13.375 C-0.89144531 13.63023437 -1.97039062 13.88546875 -3.08203125 14.1484375 C-6.15533343 14.88732881 -6.15533343 14.88732881 -9 17 C-12.74242418 17.34022038 -15.1286211 17.49154707 -18.4375 15.625 C-20 14 -20 14 -20 12 C-19.0925 11.835 -18.185 11.67 -17.25 11.5 C-11.18718541 9.80340991 -5.9615411 5.75637181 -1 2 C-0.67 1.34 -0.34 0.68 0 0 Z " fill="#5A41F2" transform="translate(185,261)"/>
<path d="M0 0 C1.67300535 4.30201376 3.18563032 8.55655049 4.4375 13 C5.39460138 16.31930905 6.54222596 19.21435354 8.1875 22.25 C9.98482673 25.61229943 10.38580187 28.14198133 10 32 C9.34 32 8.68 32 8 32 C5.71596956 27.90955053 3.43746008 23.81609516 1.1640625 19.71972656 C0.38954072 18.32597721 -0.3864959 16.93306858 -1.1640625 15.54101562 C-2.28001726 13.54254563 -3.39052915 11.54113763 -4.5 9.5390625 C-4.84998047 8.91504547 -5.19996094 8.29102844 -5.56054688 7.64810181 C-8 3.22774341 -8 3.22774341 -8 1 C-5.07175348 0.02391783 -3.04386724 -0.08226668 0 0 Z " fill="#100718" transform="translate(183,226)"/>
<path d="M0 0 C4.7961165 4.41747573 4.7961165 4.41747573 5.875 7.5 C8.4429646 13.20658801 15.72840597 16.09524411 21 19 C21 19.66 21 20.32 21 21 C25.95 21.33 30.9 21.66 36 22 C31.97176336 24.01411832 31.12169171 24.21131284 26.9375 23.6875 C26.08027344 23.58824219 25.22304687 23.48898437 24.33984375 23.38671875 C22 23 22 23 19 22 C19 21.34 19 20.68 19 20 C17.35 20 15.7 20 14 20 C14 20.66 14 21.32 14 22 C8.78139555 20.21076419 4.61909513 17.16195939 1 13 C-0.00496852 9.98509443 -0.10335303 7.95818308 -0.0625 4.8125 C-0.05347656 3.91144531 -0.04445312 3.01039063 -0.03515625 2.08203125 C-0.02355469 1.39496094 -0.01195312 0.70789063 0 0 Z " fill="#477BFA" transform="translate(137,254)"/>
<path d="M0 0 C3.49831024 4.04319377 5.92085494 8.26043282 8.3125 13 C8.8703418 14.04800781 8.8703418 14.04800781 9.43945312 15.1171875 C12.06322124 20.29632009 12.06322124 20.29632009 11.73046875 24 C11.48941406 24.66 11.24835938 25.32 11 26 C9.68 26.33 8.36 26.66 7 27 C5.21978413 24.21692169 3.51154732 21.39573397 1.8125 18.5625 C1.05936523 17.3878418 1.05936523 17.3878418 0.29101562 16.18945312 C-3.18213916 10.28751878 -3.18213916 10.28751878 -2.63134766 6.39404297 C-1.88831142 4.16493427 -1.05940817 2.09531571 0 0 Z " fill="#F5F5F3" transform="translate(177,233)"/>
<path d="M0 0 C7.26 0 14.52 0 22 0 C21.34 1.32 20.68 2.64 20 4 C19.34 4 18.68 4 18 4 C17.7525 4.61875 17.505 5.2375 17.25 5.875 C15.72778828 8.46275992 14.83222025 9.05592658 12 10 C9.0625 10.4375 9.0625 10.4375 6 10 C1.78294789 6.72007058 1.07751265 5.38756327 0 0 Z " fill="#060606" transform="translate(217,257)"/>
<path d="M0 0 C1.7074998 1.28062485 3.37373596 2.61767557 5 4 C5 4.66 5 5.32 5 6 C2.69 6 0.38 6 -2 6 C-2 15.24 -2 24.48 -2 34 C-5.23942735 30.76057265 -6.24358084 28.04267299 -7.5625 23.8125 C-7.77865967 23.14210693 -7.99481934 22.47171387 -8.2175293 21.78100586 C-9.66891808 17.2236782 -10.95269467 12.66526919 -12 8 C-11.34 8 -10.68 8 -10 8 C-8.61061923 9.96147874 -7.2739589 11.96166576 -6 14 C-5.34 11.36 -4.68 8.72 -4 6 C-4.66 5.67 -5.32 5.34 -6 5 C-3.69 5 -1.38 5 1 5 C0.67 3.35 0.34 1.7 0 0 Z " fill="#AF07E5" transform="translate(195,218)"/>
<path d="M0 0 C2.50620823 1.43133555 3.96267163 2.86328976 6 5 C6 5.99 6 6.98 6 8 C-0.27 8 -6.54 8 -13 8 C-10.17306775 0.93266937 -7.75227329 -1.06927907 0 0 Z " fill="#121211" transform="translate(230,243)"/>
<path d="M0 0 C0.28488281 0.57621094 0.56976563 1.15242187 0.86328125 1.74609375 C1.58144074 3.17007322 2.32581188 4.58139576 3.10546875 5.97265625 C6.34893254 12.23710797 6.18077661 17.13352731 5 24 C4.67 24 4.34 24 4 24 C4 22.35 4 20.7 4 19 C2.68 19 1.36 19 0 19 C-1.75 17.9375 -1.75 17.9375 -3 16 C-3.70352 10.13733335 -2.05465222 5.39346208 0 0 Z " fill="#5840EF" transform="translate(132,237)"/>
<path d="M0 0 C1.24265625 0.01804688 2.4853125 0.03609375 3.765625 0.0546875 C6.80290966 0.10141496 9.83852939 0.16691409 12.875 0.25 C12.875 0.58 12.875 0.91 12.875 1.25 C11.95219238 1.28758423 11.95219238 1.28758423 11.01074219 1.32592773 C8.21529844 1.44218487 5.42016702 1.56477642 2.625 1.6875 C1.65691406 1.72681641 0.68882812 1.76613281 -0.30859375 1.80664062 C-1.71044922 1.86948242 -1.71044922 1.86948242 -3.140625 1.93359375 C-3.99946289 1.97025146 -4.85830078 2.00690918 -5.74316406 2.04467773 C-8.02534619 2.24140951 -9.9820077 2.4327825 -12.125 3.25 C-12.455 4.24 -12.785 5.23 -13.125 6.25 C-14.775 6.58 -16.425 6.91 -18.125 7.25 C-18.125 7.91 -18.125 8.57 -18.125 9.25 C-19.23875 9.724375 -20.3525 10.19875 -21.5 10.6875 C-23.39210994 11.50306463 -25.28212709 12.32856355 -27.125 13.25 C-26.795 11.93 -26.465 10.61 -26.125 9.25 C-25.465 9.25 -24.805 9.25 -24.125 9.25 C-24.125 7.6 -24.125 5.95 -24.125 4.25 C-16.04572264 0.11120761 -8.96418843 -0.24953844 0 0 Z " fill="#AE0ADB" transform="translate(168.125,209.75)"/>
<path d="M0 0 C3.125 2.375 3.125 2.375 5 5 C5 5.66 5 6.32 5 7 C4.01 7 3.02 7 2 7 C2 15.58 2 24.16 2 33 C1.67 33 1.34 33 1 33 C0.98018066 32.22809326 0.96036133 31.45618652 0.93994141 30.66088867 C0.84478857 27.16941042 0.73506953 23.67853848 0.625 20.1875 C0.5940625 18.97255859 0.563125 17.75761719 0.53125 16.50585938 C0.49257813 15.34248047 0.45390625 14.17910156 0.4140625 12.98046875 C0.36693115 11.37014771 0.36693115 11.37014771 0.31884766 9.72729492 C0.18407693 6.7839235 0.18407693 6.7839235 -2 4 C-6.54899046 3.57084996 -9.89210262 4.00829218 -14 6 C-14 5.01 -14 4.02 -14 3 C-9.92969658 -0.98570127 -5.38973051 -0.95778733 0 0 Z " fill="#CECECE" transform="translate(400,239)"/>
<path d="M0 0 C1.32 0 2.64 0 4 0 C3.16569015 3.67096333 2.30842311 5.69157689 -0.375 8.375 C-5.5126569 10.67808758 -10.44257093 10.68966652 -16 10 C-16.99 9.34 -17.98 8.68 -19 8 C-19 6.68 -19 5.36 -19 4 C-18.01 4.495 -18.01 4.495 -17 5 C-13.23304329 6.25565224 -9.92542098 6.80887463 -6 6 C-3.03949126 3.70800597 -3.03949126 3.70800597 -1 1 C-0.67 0.67 -0.34 0.34 0 0 Z " fill="#F4F4F4" transform="translate(369,262)"/>
<path d="M0 0 C0.99 0.33 1.98 0.66 3 1 C2.67 1.99 2.34 2.98 2 4 C1.01 4.33 0.02 4.66 -1 5 C-1.67939174 6.99571323 -2.34561559 8.99594773 -3 11 C-6.4352048 13.29013653 -7.985331 13.17842973 -12 13 C-15 7.25 -15 7.25 -15 5 C-12.525 5.495 -12.525 5.495 -10 6 C-10 6.66 -10 7.32 -10 8 C-9.31292969 7.41089844 -8.62585938 6.82179688 -7.91796875 6.21484375 C-7.01691406 5.46332031 -6.11585938 4.71179688 -5.1875 3.9375 C-4.29417969 3.18339844 -3.40085938 2.42929687 -2.48046875 1.65234375 C-1.25263672 0.83443359 -1.25263672 0.83443359 0 0 Z " fill="#025EF2" transform="translate(190,274)"/>
<path d="M0 0 C0.33 0 0.66 0 1 0 C1.48506832 8.89291917 -0.32374305 17.30940593 -2 26 C-2.66 26 -3.32 26 -4 26 C-3.67 24.02 -3.34 22.04 -3 20 C-4.32 20 -5.64 20 -7 20 C-6.814375 18.88625 -6.62875 17.7725 -6.4375 16.625 C-5.68319343 13.17431139 -5.68319343 13.17431139 -7 11 C-6.34 10.34 -5.68 9.68 -5 9 C-4.34 9 -3.68 9 -3 9 C-2.01 6.03 -1.02 3.06 0 0 Z " fill="#9D44EA" transform="translate(148,234)"/>
<path d="M0 0 C1.32 0 2.64 0 4 0 C3.71349017 3.43811794 3.26566773 4.74171193 0.75 7.1875 C-4.26584569 10.4933983 -7.935827 11.45767343 -14 11 C-14.66 10.34 -15.32 9.68 -16 9 C-13.08300643 7.05533762 -11.87936219 6.69649572 -8.5625 6.1875 C-4.08191435 5.29573295 -2.66026217 3.74407268 0 0 Z " fill="#E3E3E3" transform="translate(332,262)"/>
<path d="M0 0 C4.7961165 4.41747573 4.7961165 4.41747573 5.875 7.5 C7.37247545 10.82772323 9.52737579 12.04214438 12.5390625 13.984375 C13.02117187 14.31953125 13.50328125 14.6546875 14 15 C14 15.33 14 15.66 14 16 C12.35 16 10.7 16 9 16 C9 15.01 9 14.02 9 13 C8.01 13.99 7.02 14.98 6 16 C1.125 13.375 1.125 13.375 0 10 C-0.06802967 8.27204648 -0.08495645 6.54164635 -0.0625 4.8125 C-0.05347656 3.91144531 -0.04445312 3.01039063 -0.03515625 2.08203125 C-0.02355469 1.39496094 -0.01195312 0.70789063 0 0 Z " fill="#5283FA" transform="translate(137,254)"/>
<path d="M0 0 C-1.38188453 3.21043882 -2.92421903 5.04936365 -5.625 7.25 C-6.25664062 7.77078125 -6.88828125 8.2915625 -7.5390625 8.828125 C-8.02117187 9.21484375 -8.50328125 9.6015625 -9 10 C-8.67 8.35 -8.34 6.7 -8 5 C-7.01 5 -6.02 5 -5 5 C-5 4.01 -5 3.02 -5 2 C-9.461098 3.40205937 -11.77539351 5.68824198 -15 9 C-15.66 9 -16.32 9 -17 9 C-17.85039667 6.61888932 -18.07366994 5.28649422 -17.4375 2.8125 C-16 1 -16 1 -13.5 0.25 C-8.99230661 -0.0719781 -4.51677798 -0.08033795 0 0 Z " fill="#165CFA" transform="translate(197,273)"/>
<path d="M0 0 C0.89106445 -0.00193359 1.78212891 -0.00386719 2.70019531 -0.00585938 C9.807692 0.16565608 14.89061383 1.76841117 20.3125 6.5625 C18.3125 7.5625 18.3125 7.5625 15.375 6.8125 C12.3125 5.5625 12.3125 5.5625 10.97265625 4.00390625 C7.96644478 1.39380735 4.27448053 2.23643232 0.4765625 2.32421875 C-3.74963839 2.6424882 -7.59565167 3.47134045 -11.6875 4.5625 C-10.0375 4.8925 -8.3875 5.2225 -6.6875 5.5625 C-6.6875 6.2225 -6.6875 6.8825 -6.6875 7.5625 C-9.3275 7.5625 -11.9675 7.5625 -14.6875 7.5625 C-14.6875 6.2425 -14.6875 4.9225 -14.6875 3.5625 C-10.43128086 -0.2900365 -5.43716311 -0.01206025 0 0 Z " fill="#E303F6" transform="translate(174.6875,210.4375)"/>
<path d="M0 0 C2.74057325 3.27100678 4.18058075 6.58477621 5.6875 10.5625 C6.12449219 11.69816406 6.56148437 12.83382812 7.01171875 14.00390625 C8 17 8 17 8 20 C7.401875 19.690625 6.80375 19.38125 6.1875 19.0625 C3.91043228 17.89790296 3.91043228 17.89790296 1 17 C0.09586327 13.16275828 -0.10576898 9.62497726 -0.0625 5.6875 C-0.05347656 4.61886719 -0.04445312 3.55023438 -0.03515625 2.44921875 C-0.02355469 1.64097656 -0.01195312 0.83273438 0 0 Z " fill="#CD5BF8" transform="translate(202,228)"/>
<path d="M0 0 C4.04191465 4.49101628 6.43674441 9.58984989 9 15 C7.35 14.67 5.7 14.34 4 14 C3.67 13.01 3.34 12.02 3 11 C1.68 11.33 0.36 11.66 -1 12 C-2.1875 10.5 -2.1875 10.5 -3 8 C-2.27101296 5.21175762 -1.1843275 2.62334908 0 0 Z " fill="#EEEFED" transform="translate(177,233)"/>
<path d="M0 0 C0.33 0 0.66 0 1 0 C1.103125 1.258125 1.20625 2.51625 1.3125 3.8125 C1.62936258 7.10086081 1.62936258 7.10086081 3.625 9.625 C4.07875 10.07875 4.5325 10.5325 5 11 C4.77669287 14.64734979 4.61627165 16.38372835 2 19 C1.01 19 0.02 19 -1 19 C-1 16.03 -1 13.06 -1 10 C-1.66 10 -2.32 10 -3 10 C-2.25 3.375 -2.25 3.375 0 0 Z " fill="#B03BFC" transform="translate(141,223)"/>
<path d="M0 0 C0.66 0.33 1.32 0.66 2 1 C2.625 4.0625 2.625 4.0625 3 7 C3.99 7.33 4.98 7.66 6 8 C7.60546875 9.62890625 7.60546875 9.62890625 9.1875 11.5625 C9.71730469 12.20316406 10.24710938 12.84382813 10.79296875 13.50390625 C11.39044922 14.24447266 11.39044922 14.24447266 12 15 C9 16 9 16 6.9375 15.375 C4.43309065 13.59767724 3.90951117 11.8801187 3 9 C3 9.66 3 10.32 3 11 C2.01 11 1.02 11 0 11 C0 10.01 0 9.02 0 8 C-0.66 8 -1.32 8 -2 8 C-1.125 1.125 -1.125 1.125 0 0 Z " fill="#0230CD" transform="translate(135,260)"/>
<path d="M0 0 C2.75026417 -0.05404449 5.49946203 -0.09369306 8.25 -0.125 C9.02730469 -0.14175781 9.80460937 -0.15851563 10.60546875 -0.17578125 C17.72431144 -0.23662606 17.72431144 -0.23662606 21 2 C21 2.33 21 2.66 21 3 C16.545 3.495 16.545 3.495 12 4 C11.67 3.34 11.34 2.68 11 2 C8.64400765 1.53248212 8.64400765 1.53248212 5.9375 1.375 C5.01839844 1.30023438 4.09929687 1.22546875 3.15234375 1.1484375 C2.08693359 1.07496094 2.08693359 1.07496094 1 1 C1 2.65 1 4.3 1 6 C-2.3 6 -5.6 6 -9 6 C-8.67 5.01 -8.34 4.02 -8 3 C-5.69 3.33 -3.38 3.66 -1 4 C-0.67 2.68 -0.34 1.36 0 0 Z " fill="#9C0CC6" transform="translate(162,223)"/>
<path d="M0 0 C1 2 1 2 0.0625 5.125 C-0.288125 6.07375 -0.63875 7.0225 -1 8 C0.32 8 1.64 8 3 8 C3.07347656 8.90492188 3.07347656 8.90492188 3.1484375 9.828125 C3.22320312 10.62734375 3.29796875 11.4265625 3.375 12.25 C3.44460937 13.03890625 3.51421875 13.8278125 3.5859375 14.640625 C4.01507113 17.085877 4.78600638 18.84836903 6 21 C1.77255959 18.88627979 0.57378005 17.38410156 -1 13 C-1.99 12.34 -2.98 11.68 -4 11 C-3.56179109 6.44262737 -3.14958831 3.42346555 0 0 Z " fill="#8774FE" transform="translate(142,246)"/>
<path d="M0 0 C0.66 0 1.32 0 2 0 C2.99 2.31 3.98 4.62 5 7 C4.01 7 3.02 7 2 7 C-0.62564845 7.95478126 -1.73282306 8.46564612 -3 11 C-4 13 -4 13 -5.9375 14.3125 C-8 15 -8 15 -11 14 C-11 13.34 -11 12.68 -11 12 C-9.35 12 -7.7 12 -6 12 C-6.103125 11.278125 -6.20625 10.55625 -6.3125 9.8125 C-5.8747126 5.87241336 -3.8720261 4.59182843 -1 2 C-0.67 1.34 -0.34 0.68 0 0 Z " fill="#04060D" transform="translate(208,261)"/>
<path d="M0 0 C-0.6875 2.4375 -0.6875 2.4375 -2 5 C-4.625 5.8125 -4.625 5.8125 -7 6 C-7.12375 6.639375 -7.2475 7.27875 -7.375 7.9375 C-7.58125 8.618125 -7.7875 9.29875 -8 10 C-10.95664519 11.4783226 -13.74229737 11.06032783 -17 11 C-17.33 10.01 -17.66 9.02 -18 8 C-17.030625 7.79375 -16.06125 7.5875 -15.0625 7.375 C-10.76808481 6.18308068 -7.50471752 3.82267112 -3.91796875 1.2421875 C-2 0 -2 0 0 0 Z " fill="#6C2CD7" transform="translate(183,265)"/>
<path d="M0 0 C-0.33 1.32 -0.66 2.64 -1 4 C-7.46008837 5.95021536 -13.2718373 6.22262303 -20 6 C-20 5.34 -20 4.68 -20 4 C-21.32 3.67 -22.64 3.34 -24 3 C-24 2.34 -24 1.68 -24 1 C-22.845 1.33 -21.69 1.66 -20.5 2 C-12.25582954 4.02462843 -7.40486127 0 0 0 Z " fill="#000A2F" transform="translate(184,287)"/>
<path d="M0 0 C0.66 0.33 1.32 0.66 2 1 C2.33 1.99 2.66 2.98 3 4 C4.32 3.34 5.64 2.68 7 2 C7.33 2.99 7.66 3.98 8 5 C7.34 5 6.68 5 6 5 C5.7525 5.78375 5.505 6.5675 5.25 7.375 C3.84610901 10.32317108 2.99324263 10.9024777 0 12 C0 13.65 0 15.3 0 17 C-0.33 17 -0.66 17 -1 17 C-1.02721176 15.10424749 -1.04649136 13.20838021 -1.0625 11.3125 C-1.07410156 10.25675781 -1.08570313 9.20101563 -1.09765625 8.11328125 C-1.00865425 5.27589738 -0.64939838 2.7561081 0 0 Z " fill="#8E7DE0" transform="translate(202,256)"/>
<path d="M0 0 C0.33 0 0.66 0 1 0 C1.12375 0.804375 1.2475 1.60875 1.375 2.4375 C1.58125 3.283125 1.7875 4.12875 2 5 C2.66 5.33 3.32 5.66 4 6 C4 4.02 4 2.04 4 0 C4.33 0 4.66 0 5 0 C5.07347656 1.12148437 5.07347656 1.12148437 5.1484375 2.265625 C5.22320312 3.25046875 5.29796875 4.2353125 5.375 5.25 C5.44460938 6.22453125 5.51421875 7.1990625 5.5859375 8.203125 C5.98465249 10.89633189 6.63507063 12.66963279 8 15 C7.01 16.485 7.01 16.485 6 18 C2.48902782 14.95715744 1.04538967 12.53002191 0 8 C-0.14580512 5.30746547 -0.09312178 2.70053172 0 0 Z " fill="#D4D4D4" transform="translate(343,251)"/>
<path d="M0 0 C0.33 1.32 0.66 2.64 1 4 C0.34 4 -0.32 4 -1 4 C-1.309375 5.093125 -1.61875 6.18625 -1.9375 7.3125 C-2.58337897 9.55407994 -3.2623117 11.7869351 -4 14 C-4.66 14 -5.32 14 -6 14 C-6 15.32 -6 16.64 -6 18 C-6.66 18 -7.32 18 -8 18 C-7.57058857 11.98824005 -6.43663195 7.04829383 -3 2 C-2.01 1.34 -1.02 0.68 0 0 Z " fill="#9346D1" transform="translate(143,215)"/>
<path d="M0 0 C0.5534764 2.07553648 1 3.84365964 1 6 C1.66 6.33 2.32 6.66 3 7 C3 7.99 3 8.98 3 10 C4.32 10.33 5.64 10.66 7 11 C6.25 16.75 6.25 16.75 4 19 C3.72285156 18.37351563 3.44570312 17.74703125 3.16015625 17.1015625 C2.79792969 16.28429687 2.43570313 15.46703125 2.0625 14.625 C1.70285156 13.81289062 1.34320313 13.00078125 0.97265625 12.1640625 C0.3430097 10.76316215 -0.31312642 9.37374716 -1 8 C-1.23076923 2.46153846 -1.23076923 2.46153846 0 0 Z " fill="#763BEF" transform="translate(134,233)"/>
<path d="M0 0 C0.33 0.66 0.66 1.32 1 2 C0.01 2.33 -0.98 2.66 -2 3 C-2.12375 4.299375 -2.2475 5.59875 -2.375 6.9375 C-2.5859375 9.15234375 -2.5859375 9.15234375 -3 11 C-3.99 11.495 -3.99 11.495 -5 12 C-8 7.25 -8 7.25 -8 5 C-8.99 4.67 -9.98 4.34 -11 4 C-10.34 3.67 -9.68 3.34 -9 3 C-8.01 3.33 -7.02 3.66 -6 4 C-6 3.01 -6 2.02 -6 1 C-4.02 0.67 -2.04 0.34 0 0 Z " fill="#D303F7" transform="translate(193,221)"/>
<path d="M0 0 C0.33 0 0.66 0 1 0 C1.185625 1.03125 1.37125 2.0625 1.5625 3.125 C2.86623779 7.86674262 6.15464707 10.19309799 10 13 C9.34 13.66 8.68 14.32 8 15 C7.67 14.01 7.34 13.02 7 12 C6.34 12 5.68 12 5 12 C4.67 12.99 4.34 13.98 4 15 C3.34 15 2.68 15 2 15 C-0.20803531 12.54662743 -1.00920955 10.75403187 -0.96875 7.44140625 C-0.71383823 4.94539519 -0.39917109 2.47678445 0 0 Z " fill="#8052DE" transform="translate(146,253)"/>
<path d="M0 0 C0.66 0 1.32 0 2 0 C2.20496094 0.69867188 2.40992188 1.39734375 2.62109375 2.1171875 C2.89050781 3.02726563 3.15992188 3.93734375 3.4375 4.875 C3.70433594 5.77992188 3.97117188 6.68484375 4.24609375 7.6171875 C4.92613826 9.98275381 4.92613826 9.98275381 6 12 C6.33 8.7 6.66 5.4 7 2 C7.33 2 7.66 2 8 2 C8 7.94 8 13.88 8 20 C4.6860037 16.6860037 3.66960226 13.77120721 2.3125 9.4375 C2.08755859 8.75236328 1.86261719 8.06722656 1.63085938 7.36132812 C0 2.31012538 0 2.31012538 0 0 Z " fill="#5E0EA3" transform="translate(185,232)"/>
<path d="M0 0 C3.54470259 0.29539188 4.78215295 0.77626519 7.3125 3.375 C9 6 9 6 9 9 C4.16743695 8.58578031 2.17320782 6.53586014 -1 3 C-0.67 2.01 -0.34 1.02 0 0 Z " fill="#DFDFDF" transform="translate(364,240)"/>
<path d="M0 0 C0.53625 0.226875 1.0725 0.45375 1.625 0.6875 C0.985625 1.120625 0.34625 1.55375 -0.3125 2 C-2.64246003 3.59989177 -2.64246003 3.59989177 -3.375 6.6875 C-4.365 6.6875 -5.355 6.6875 -6.375 6.6875 C-6.705 7.6775 -7.035 8.6675 -7.375 9.6875 C-9.4375 10.875 -9.4375 10.875 -11.375 11.6875 C-11.045 10.3675 -10.715 9.0475 -10.375 7.6875 C-9.715 7.6875 -9.055 7.6875 -8.375 7.6875 C-8.375 6.0375 -8.375 4.3875 -8.375 2.6875 C-2.95961538 -0.38942308 -2.95961538 -0.38942308 0 0 Z " fill="#950FDC" transform="translate(152.375,211.3125)"/>
<path d="M0 0 C-2.18785683 2.18785683 -3.01127982 2.38968965 -5.9375 3 C-8.98961332 3.63894709 -10.28652376 4.19101584 -13 6 C-15.33199388 6.07905064 -17.66832622 6.08798769 -20 6 C-18.68 5.67 -17.36 5.34 -16 5 C-16 4.34 -16 3.68 -16 3 C-15.34 3 -14.68 3 -14 3 C-14 2.34 -14 1.68 -14 1 C-9.32798795 -0.20568053 -4.78503708 -0.09382426 0 0 Z " fill="#373CF8" transform="translate(189,272)"/>
<path d="M0 0 C2.4375 0.8125 2.4375 0.8125 5 2 C5.33 2.99 5.66 3.98 6 5 C10.95 5.33 15.9 5.66 21 6 C16.97176336 8.01411832 16.12169171 8.21131284 11.9375 7.6875 C11.08027344 7.58824219 10.22304687 7.48898437 9.33984375 7.38671875 C7 7 7 7 4 6 C4 5.34 4 4.68 4 4 C2.68 3.67 1.36 3.34 0 3 C0 2.01 0 1.02 0 0 Z " fill="#5853FA" transform="translate(152,270)"/>
<path d="M0 0 C5.28 0.66 10.56 1.32 16 2 C16 1.34 16 0.68 16 0 C17.98 0 19.96 0 22 0 C17.26763154 3.62814915 14.01539039 4.62878645 8 4 C5.2095601 3.18651582 2.68058509 2.14882218 0 1 C0 0.67 0 0.34 0 0 Z " fill="#0F50D3" transform="translate(160,287)"/>
<path d="M0 0 C3.68754757 0.49831724 5.60490662 1.10067643 8 4 C7.67 4.99 7.34 5.98 7 7 C6.01 6.67 5.02 6.34 4 6 C4 6.66 4 7.32 4 8 C3.01 8 2.02 8 1 8 C0.67 5.36 0.34 2.72 0 0 Z " fill="#DA47FD" transform="translate(145,222)"/>
<path d="M0 0 C4.27077656 -0.05794812 8.54145236 -0.09357874 12.8125 -0.125 C14.02744141 -0.14175781 15.24238281 -0.15851563 16.49414062 -0.17578125 C17.65751953 -0.18222656 18.82089844 -0.18867188 20.01953125 -0.1953125 C21.62985229 -0.21102295 21.62985229 -0.21102295 23.27270508 -0.22705078 C26 0 26 0 29 2 C29 2.66 29 3.32 29 4 C27.3603125 3.52433594 27.3603125 3.52433594 25.6875 3.0390625 C20.48620957 1.73873989 15.33965962 1.55176115 10 1.375 C9.03449219 1.33632812 8.06898438 1.29765625 7.07421875 1.2578125 C4.7163256 1.16443059 2.35842244 1.07865671 0 1 C0 0.67 0 0.34 0 0 Z " fill="#3A0041" transform="translate(160,209)"/>
<path d="M0 0 C3.53586014 3.17320782 5.58578031 5.16743695 6 10 C5.34 10 4.68 10 4 10 C4 10.66 4 11.32 4 12 C3.34 12 2.68 12 2 12 C-0.60018816 8.09971775 -0.15085514 4.52565431 0 0 Z " fill="#7589FD" transform="translate(137,254)"/>
<path d="M0 0 C2.475 0.99 2.475 0.99 5 2 C5 1.34 5 0.68 5 0 C6.65 0 8.3 0 10 0 C10.33 0.99 10.66 1.98 11 3 C10.34 3 9.68 3 9 3 C9 3.66 9 4.32 9 5 C6.75 5.3125 6.75 5.3125 4 5 C1.6875 2.5 1.6875 2.5 0 0 Z " fill="#126BFD" transform="translate(146,274)"/>
<path d="M0 0 C-0.92493788 3.78383679 -1.39371171 5.56693694 -4.625 7.875 C-5.40875 8.24625 -6.1925 8.6175 -7 9 C-7.24862931 6.01644824 -7.18991433 4.35134151 -5.75 1.6875 C-4 0 -4 0 0 0 Z " fill="#EAEAEA" transform="translate(373,262)"/>
<path d="M0 0 C1.7074998 1.28062485 3.37373596 2.61767557 5 4 C5 4.66 5 5.32 5 6 C2.69 6 0.38 6 -2 6 C-2 9.3 -2 12.6 -2 16 C-2.33 16 -2.66 16 -3 16 C-3 12.7 -3 9.4 -3 6 C-3.99 5.67 -4.98 5.34 -6 5 C-3.69 5 -1.38 5 1 5 C0.67 3.35 0.34 1.7 0 0 Z " fill="#B214CC" transform="translate(195,218)"/>
<path d="M0 0 C2.97 0.495 2.97 0.495 6 1 C6.33 1.99 6.66 2.98 7 4 C7.99 4 8.98 4 10 4 C10.33 5.32 10.66 6.64 11 8 C11.66 8 12.32 8 13 8 C13 8.99 13 9.98 13 11 C12.34 11 11.68 11 11 11 C9.66796875 9.609375 9.66796875 9.609375 8.1875 7.75 C5.70675465 4.74506767 3.15392169 2.31906006 0 0 Z " fill="#300133" transform="translate(189,213)"/>
<path d="M0 0 C1 2 1 2 0.0625 5.125 C-0.288125 6.07375 -0.63875 7.0225 -1 8 C0.32 8 1.64 8 3 8 C3 9.32 3 10.64 3 12 C2.01 12 1.02 12 0 12 C0 11.34 0 10.68 0 10 C-0.99 9.67 -1.98 9.34 -3 9 C-2.25 2.25 -2.25 2.25 0 0 Z " fill="#9E68FC" transform="translate(142,246)"/>
<path d="M0 0 C0.33 0 0.66 0 1 0 C1 4.62 1 9.24 1 14 C-1.90408342 10.12788877 -2.85079464 7.59682146 -4 3 C-3.34 3 -2.68 3 -2 3 C-2 3.66 -2 4.32 -2 5 C-1.34 5 -0.68 5 0 5 C0 3.35 0 1.7 0 0 Z " fill="#8306DC" transform="translate(191,232)"/>
<path d="M0 0 C1.32 0 2.64 0 4 0 C2.61811547 3.21043882 1.07578097 5.04936365 -1.625 7.25 C-2.57246094 8.03117187 -2.57246094 8.03117187 -3.5390625 8.828125 C-4.02117187 9.21484375 -4.50328125 9.6015625 -5 10 C-4.67 8.35 -4.34 6.7 -4 5 C-3.01 5 -2.02 5 -1 5 C-0.67 3.35 -0.34 1.7 0 0 Z " fill="#1346C4" transform="translate(193,273)"/>
<path d="M0 0 C-0.93322896 3.22388187 -1.41299771 4.66015657 -4.375 6.375 C-7.13945539 7.03320367 -8.34311004 6.78010812 -11 6 C-9.54550599 4.9944239 -8.08627557 3.99569565 -6.625 3 C-5.40683594 2.1646875 -5.40683594 2.1646875 -4.1640625 1.3125 C-2 0 -2 0 0 0 Z " fill="#5925BA" transform="translate(183,265)"/>
<path d="M0 0 C1.8125 2.375 1.8125 2.375 3 5 C2.67 5.66 2.34 6.32 2 7 C1.46375 6.484375 0.9275 5.96875 0.375 5.4375 C-2.00496499 3.67394455 -2.00496499 3.67394455 -5.25 4.3125 C-6.1575 4.539375 -7.065 4.76625 -8 5 C-6.44843568 0.34530705 -4.78780941 0 0 0 Z " fill="#C923FD" transform="translate(150,219)"/>
<path d="M0 0 C1.32 0 2.64 0 4 0 C4 0.99 4 1.98 4 3 C4.61488281 2.97679687 5.22976562 2.95359375 5.86328125 2.9296875 C6.67152344 2.91164062 7.47976562 2.89359375 8.3125 2.875 C9.11300781 2.85179687 9.91351563 2.82859375 10.73828125 2.8046875 C13 3 13 3 16 5 C10.22192976 5.2358396 5.48675196 4.86783046 0 3 C0 2.01 0 1.02 0 0 Z " fill="#DB01FD" transform="translate(156,217)"/>
<path d="M0 0 C3.3 0 6.6 0 10 0 C11.32 2.64 12.64 5.28 14 8 C13.01 8 12.02 8 11 8 C10.34 6.02 9.68 4.04 9 2 C6.03 1.67 3.06 1.34 0 1 C0 0.67 0 0.34 0 0 Z " fill="#F7DCF9" transform="translate(163,224)"/>
<path d="M0 0 C0.99 0.33 1.98 0.66 3 1 C2.67 1.99 2.34 2.98 2 4 C1.01 4.33 0.02 4.66 -1 5 C-1.66 5.66 -2.32 6.32 -3 7 C-5.125 6.625 -5.125 6.625 -7 6 C-4.74259377 3.66475218 -2.7194239 1.81294927 0 0 Z M-8 7 C-6 8 -6 8 -6 8 Z " fill="#0553FA" transform="translate(190,274)"/>
<path d="M0 0 C2.64 0.66 5.28 1.32 8 2 C8 4.64 8 7.28 8 10 C7.67 10 7.34 10 7 10 C7 8.35 7 6.7 7 5 C5.68 5 4.36 5 3 5 C1.25 3.625 1.25 3.625 0 2 C0 1.34 0 0.68 0 0 Z " fill="#2B43E0" transform="translate(129,251)"/>
<path d="M0 0 C1.42944945 2.35438733 2.08661261 3.48032433 1.625 6.25 C1.41875 6.8275 1.2125 7.405 1 8 C0.34 6.35 -0.32 4.7 -1 3 C-2.32 3 -3.64 3 -5 3 C-5.66 3.66 -6.32 4.32 -7 5 C-7.33 3.68 -7.66 2.36 -8 1 C-5.07175348 0.02391783 -3.04386724 -0.08226668 0 0 Z " fill="#26043C" transform="translate(183,226)"/>
<path d="M0 0 C3.625 -0.1875 3.625 -0.1875 7 0 C3.66666667 2.66666667 0.33333333 5.33333333 -3 8 C-2.45276317 4.62537285 -1.9451 2.91765 0 0 Z " fill="#180123" transform="translate(141,212)"/>
<path d="M0 0 C1.15224028 0.92961422 2.29659176 1.8690125 3.4375 2.8125 C4.07558594 3.33457031 4.71367187 3.85664063 5.37109375 4.39453125 C7 6 7 6 8 9 C3.25 8.125 3.25 8.125 1 7 C0.59270772 4.67843403 0.25561323 2.3431213 0 0 Z " fill="#093FD6" transform="translate(139,267)"/>
<path d="M0 0 C1.485 0.99 1.485 0.99 3 2 C3 2.66 3 3.32 3 4 C4.32 4.33 5.64 4.66 7 5 C7 5.66 7 6.32 7 7 C8.98 7.66 10.96 8.32 13 9 C11.1875 9.625 11.1875 9.625 9 10 C8.01 9.34 7.02 8.68 6 8 C6 7.34 6 6.68 6 6 C4.35 5.67 2.7 5.34 1 5 C0.67 3.35 0.34 1.7 0 0 Z " fill="#00093B" transform="translate(131,268)"/>
<path d="M0 0 C0.66 0 1.32 0 2 0 C2.33 1.32 2.66 2.64 3 4 C2.030625 4.61875 1.06125 5.2375 0.0625 5.875 C-3.02835362 7.65678846 -3.02835362 7.65678846 -4 10 C-4.66 10 -5.32 10 -6 10 C-6 7 -6 7 -3.5625 4.4375 C-2.716875 3.633125 -1.87125 2.82875 -1 2 C-0.67 1.34 -0.34 0.68 0 0 Z " fill="#111032" transform="translate(208,261)"/>
<path d="M0 0 C0.66 0 1.32 0 2 0 C2.66 0.66 3.32 1.32 4 2 C4.66 2.33 5.32 2.66 6 3 C6 4.65 6 6.3 6 8 C6.66 8.33 7.32 8.66 8 9 C7.01 9.33 6.02 9.66 5 10 C3.35 6.7 1.7 3.4 0 0 Z " fill="#0B0D10" transform="translate(180,237)"/>
<path d="M0 0 C2.64 0 5.28 0 8 0 C8 0.33 8 0.66 8 1 C6.35 1 4.7 1 3 1 C2.34 3.97 1.68 6.94 1 10 C0.67 10 0.34 10 0 10 C0 6.7 0 3.4 0 0 Z " fill="#FDCAFF" transform="translate(193,224)"/>
<path d="M0 0 C0.66 0 1.32 0 2 0 C2 1.65 2 3.3 2 5 C-1.3 5 -4.6 5 -8 5 C-7.67 4.01 -7.34 3.02 -7 2 C-4.69 2.33 -2.38 2.66 0 3 C0 2.01 0 1.02 0 0 Z " fill="#B61FD7" transform="translate(161,224)"/>
<path d="M0 0 C1.485 0.99 1.485 0.99 3 2 C6.12521833 2.16699232 6.12521833 2.16699232 9 2 C9 3.98 9 5.96 9 8 C1.28571429 4 1.28571429 4 0 0 Z " fill="#0C4CD7" transform="translate(147,276)"/>
<path d="M0 0 C2 2 2 2 2.0625 3.875 C0.34131388 7.31737224 -2.62207727 8.28033024 -6 10 C-6 9.01 -6 8.02 -6 7 C-4.35 6.67 -2.7 6.34 -1 6 C-1.33 5.01 -1.66 4.02 -2 3 C-1.34 2.01 -0.68 1.02 0 0 Z " fill="#150927" transform="translate(183,258)"/>
<path d="M0 0 C0.66 0 1.32 0 2 0 C1.67 2.97 1.34 5.94 1 9 C0.01 8.67 -0.98 8.34 -2 8 C-2.125 5.125 -2.125 5.125 -2 2 C-1.34 1.34 -0.68 0.68 0 0 Z " fill="#FCFCFC" transform="translate(346,248)"/>
<path d="M0 0 C3 1 3 1 5 3 C5.33 3.99 5.66 4.98 6 6 C5.67 6.66 5.34 7.32 5 8 C2.5 6.8125 2.5 6.8125 0 5 C-0.3125 2.3125 -0.3125 2.3125 0 0 Z " fill="#8D55FC" transform="translate(150,264)"/>
<path d="M0 0 C2.15377564 2.62198774 3.40072174 4.64404172 4 8 C1.69 7.67 -0.62 7.34 -3 7 C-2.01 4.69 -1.02 2.38 0 0 Z " fill="#6D40DD" transform="translate(185,261)"/>
<path d="M0 0 C0 1.65 0 3.3 0 5 C-0.99 5 -1.98 5 -3 5 C-3 4.34 -3 3.68 -3 3 C-3.99 2.67 -4.98 2.34 -6 2 C-6 1.34 -6 0.68 -6 0 C-3 -1 -3 -1 0 0 Z " fill="#030503" transform="translate(185,234)"/>
<path d="M0 0 C0.66 0.33 1.32 0.66 2 1 C1.67 1.33 1.34 1.66 1 2 C1.22130893 4.30793594 1.58475386 6.58042943 1.94140625 8.87109375 C1.96074219 9.57363281 1.98007813 10.27617187 2 11 C1.34 11.66 0.68 12.32 0 13 C-1.99785435 8.8794254 -2.17835515 5.54805635 -2 1 C-1.34 0.67 -0.68 0.34 0 0 Z " fill="#C248FA" transform="translate(144,223)"/>
<path d="M0 0 C1.03719328 3.21456356 0.94068337 5.40925583 0.1875 8.6875 C0.01605469 9.47511719 -0.15539062 10.26273438 -0.33203125 11.07421875 C-1 13 -1 13 -3 14 C-2.48594831 9.03083364 -1.76615118 4.70973649 0 0 Z " fill="#5142C3" transform="translate(132,237)"/>
<path d="M0 0 C4.29 0.99 8.58 1.98 13 3 C13 3.33 13 3.66 13 4 C11.58376784 4.05447047 10.16691809 4.09300508 8.75 4.125 C7.96109375 4.14820313 7.1721875 4.17140625 6.359375 4.1953125 C3.79268059 3.9828378 2.2083933 3.28654105 0 2 C0 1.34 0 0.68 0 0 Z " fill="#000C42" transform="translate(160,288)"/>
<path d="M0 0 C3.84375 1.7109375 3.84375 1.7109375 5.25 4.3125 C6.00511726 7.01833686 6.1595955 9.20707882 6 12 C4.28982274 9.4347341 3.09582189 7.12039035 1.875 4.3125 C1.52179688 3.50425781 1.16859375 2.69601563 0.8046875 1.86328125 C0.53914062 1.24839844 0.27359375 0.63351563 0 0 Z " fill="#1C0026" transform="translate(202,227)"/>
<path d="M0 0 C4.61513112 1.31860889 8.09897612 3.21355437 12 6 C10 7 10 7 7.125 6.375 C3.57300413 4.81212182 2.16555342 3.16503961 0 0 Z " fill="#CA16D3" transform="translate(183,211)"/>
<path d="M0 0 C2.01136276 2.55991624 3.62845496 5.04590299 5 8 C3.02 8.99 3.02 8.99 1 10 C-0.1577506 6.52674819 -0.06866652 3.63932552 0 0 Z " fill="#C975F9" transform="translate(202,240)"/>
<path d="M0 0 C2.4375 0.375 2.4375 0.375 5 1 C5.33 1.66 5.66 2.32 6 3 C4.02 3.99 4.02 3.99 2 5 C1.01 4.34 0.02 3.68 -1 3 C-0.67 2.01 -0.34 1.02 0 0 Z " fill="#E5E5E5" transform="translate(364,240)"/>
<path d="M0 0 C2.11180592 2.57089417 3.66306057 4.63060567 4 8 C3.34 8.66 2.68 9.32 2 10 C-0.09350689 6.5980513 -0.17942163 3.94727588 0 0 Z " fill="#A933C9" transform="translate(202,228)"/>
<path d="M0 0 C4.83256305 0.41421969 6.82679218 2.46413986 10 6 C8.35 6 6.7 6 5 6 C5 5.01 5 4.02 5 3 C2.525 2.01 2.525 2.01 0 1 C0 0.67 0 0.34 0 0 Z " fill="#627AFC" transform="translate(141,264)"/>
<path d="M0 0 C1.66832577 2.50248865 2.62381674 4.41149187 3.625 7.1875 C4.01558594 8.26064453 4.01558594 8.26064453 4.4140625 9.35546875 C4.60742188 9.89816406 4.80078125 10.44085938 5 11 C4.01 11.33 3.02 11.66 2 12 C0.86235649 7.73383684 0 4.43513689 0 0 Z " fill="#9C59C0" transform="translate(206,236)"/>
<path d="M0 0 C0.66 1.32 1.32 2.64 2 4 C1.443125 3.814375 0.88625 3.62875 0.3125 3.4375 C-2.399133 2.92448835 -4.34371039 3.3359276 -7 4 C-6.34 3.67 -5.68 3.34 -5 3 C-5 2.34 -5 1.68 -5 1 C-3.35 0.67 -1.7 0.34 0 0 Z " fill="#6338FD" transform="translate(186,267)"/>
<path d="M0 0 C0.33 1.32 0.66 2.64 1 4 C-0.65 4.66 -2.3 5.32 -4 6 C-4 5.01 -4 4.02 -4 3 C-2 1.3125 -2 1.3125 0 0 Z " fill="#E3E3E3" transform="translate(390,239)"/>
<path d="M0 0 C0.66 0 1.32 0 2 0 C2.33 2.31 2.66 4.62 3 7 C2.01 7 1.02 7 0 7 C0 4.69 0 2.38 0 0 Z " fill="#9C38FE" transform="translate(138,233)"/>
<path d="M0 0 C0.33 1.32 0.66 2.64 1 4 C0.01 4.33 -0.98 4.66 -2 5 C-2.33 5.66 -2.66 6.32 -3 7 C-3.66 7 -4.32 7 -5 7 C-3.75023244 3.34683329 -3.32901247 2.21934164 0 0 Z " fill="#803CA9" transform="translate(143,215)"/>
<path d="M0 0 C5.625 -0.25 5.625 -0.25 9 2 C9 2.66 9 3.32 9 4 C6.03 3.01 3.06 2.02 0 1 C0 0.67 0 0.34 0 0 Z " fill="#2F0030" transform="translate(180,209)"/>
<path d="M0 0 C0.53625 0.226875 1.0725 0.45375 1.625 0.6875 C-3.79038462 3.76442308 -3.79038462 3.76442308 -6.75 3.375 C-7.554375 3.0346875 -7.554375 3.0346875 -8.375 2.6875 C-2.95961538 -0.38942308 -2.95961538 -0.38942308 0 0 Z " fill="#8113B2" transform="translate(152.375,211.3125)"/>
</svg>
