<?xml version="1.0" standalone="no"?>
<!DOCTYPE svg PUBLIC "-//W3C//DTD SVG 20010904//EN"
 "http://www.w3.org/TR/2001/REC-SVG-20010904/DTD/svg10.dtd">
<svg version="1.0" xmlns="http://www.w3.org/2000/svg"
 width="1080.000000pt" height="1080.000000pt" viewBox="0 0 1080.000000 1080.000000"
 preserveAspectRatio="xMidYMid meet">

<g transform="translate(0.000000,1080.000000) scale(0.100000,-0.100000)"
fill="#000000" stroke="none">
<path d="M2331 6182 c-11 -8 -11 -10 0 -14 8 -3 -4 -14 -29 -27 -23 -12 -46
-20 -51 -17 -4 3 -15 -9 -25 -26 -12 -20 -21 -26 -26 -18 -5 8 -9 7 -14 -5 -3
-9 -6 -266 -6 -571 0 -452 3 -561 14 -588 20 -47 81 -70 173 -64 123 7 147 24
454 325 l95 94 182 -175 c236 -227 262 -241 437 -241 138 0 170 11 197 65 17
32 18 82 18 600 0 650 4 620 -85 653 -40 15 -68 18 -138 14 -140 -7 -186 -35
-389 -235 l-168 -165 -169 165 c-200 196 -246 225 -376 234 -44 3 -86 1 -94
-4z m272 -309 c21 -15 47 -38 58 -52 111 -151 149 -184 200 -174 39 7 93 -44
108 -101 6 -26 28 -64 51 -92 23 -25 39 -48 37 -50 -4 -4 -100 37 -172 73 -17
8 -51 32 -75 54 -42 35 -44 39 -31 60 13 21 10 26 -40 72 -126 115 -289 273
-289 279 0 11 108 -38 153 -69z m743 -12 c23 -10 44 -24 48 -30 4 -5 14 -7 24
-4 17 6 -29 -46 -161 -185 l-70 -73 -84 83 c-45 45 -83 88 -83 95 0 16 98 89
153 114 53 24 120 24 173 0z m-608 -442 c66 -56 74 -67 76 -118 1 -41 -39 -79
-138 -129 -60 -31 -71 -33 -123 -26 -43 5 -64 14 -84 33 -14 15 -33 25 -40 23
-8 -3 0 11 17 29 166 185 217 239 224 239 4 0 35 -23 68 -51z"/>
<path d="M4300 5595 l0 -445 80 0 80 0 0 311 c0 170 3 308 8 305 4 -2 95 -142
202 -310 l195 -305 83 -1 82 0 0 445 0 445 -77 0 -78 0 3 -310 c2 -170 0 -310
-5 -310 -8 0 -90 123 -304 457 l-104 163 -82 0 -83 0 0 -445z"/>
<path d="M5397 5790 c-97 -25 -173 -88 -216 -179 -21 -46 -26 -71 -26 -141 0
-77 3 -92 33 -152 37 -75 73 -110 150 -146 152 -70 344 -15 422 120 16 29 30
56 30 61 0 4 -35 7 -78 7 -67 0 -82 -3 -98 -21 -32 -35 -70 -49 -137 -49 -73
0 -116 22 -154 79 -42 62 -48 60 230 63 l252 3 -1 51 c-3 120 -81 239 -185
283 -58 25 -165 35 -222 21z m136 -141 c23 -6 51 -18 62 -27 23 -19 55 -62 55
-74 0 -5 -79 -8 -176 -8 l-175 0 18 31 c22 38 57 64 103 77 47 14 64 14 113 1z"/>
<path d="M7479 5787 c-63 -18 -107 -45 -142 -90 -26 -31 -32 -49 -35 -102 -4
-56 -1 -70 22 -109 33 -56 79 -89 227 -159 120 -58 189 -115 189 -157 0 -18 7
-20 75 -20 l76 0 -7 38 c-19 104 -84 167 -266 258 -146 72 -178 96 -178 130 0
57 39 84 122 84 64 0 115 -28 131 -70 11 -29 13 -30 79 -30 68 0 68 0 68 28
-1 73 -80 167 -162 192 -63 18 -147 22 -199 7z"/>
<path d="M5846 5778 c5 -7 54 -77 111 -156 l103 -142 -38 -53 c-21 -28 -75
-103 -120 -164 l-82 -113 88 0 89 0 77 116 c43 64 81 112 86 108 4 -5 40 -57
79 -116 l71 -108 85 0 c47 0 85 2 85 5 0 3 -49 71 -108 152 -59 82 -111 154
-116 161 -7 11 69 125 192 290 l24 32 -88 0 -89 -1 -70 -110 c-80 -127 -63
-129 -158 20 l-58 91 -85 0 c-66 0 -83 -3 -78 -12z"/>
<path d="M6580 5583 c0 -115 5 -225 10 -245 19 -68 70 -130 134 -163 53 -27
69 -30 150 -30 80 0 98 4 149 28 64 32 99 72 128 147 17 44 19 77 19 260 l0
210 -70 0 -70 0 0 -197 c0 -169 -3 -203 -18 -232 -28 -56 -64 -76 -137 -76
-73 0 -109 20 -137 76 -15 29 -18 63 -18 232 l0 197 -70 0 -70 0 0 -207z"/>
<path d="M7338 5315 c-14 -8 -31 -30 -38 -49 -30 -92 74 -165 147 -102 23 20
28 32 28 70 0 33 -6 51 -21 66 -27 27 -82 34 -116 15z"/>
</g>
</svg>
